<svg xmlns="http://www.w3.org/2000/svg" width="240" height="240" viewBox="0 0 240 240">
  <g fill="none" stroke="#0f766e" stroke-width="5" stroke-linecap="round" stroke-linejoin="round" opacity="0.16">
    <path d="M36 86h90l-12 64H48L36 86Z"/>
    <path d="M55 86l16-28h20l16 28"/>
    <path d="M56 112h58"/>
    <path d="M61 135h48"/>
    <path d="M160 84c16-20 49-8 49 22 0 32-22 56-49 56s-49-24-49-56c0-30 33-42 49-22Z"/>
    <path d="M160 84c-2-17 8-30 24-34"/>
    <path d="M154 56c6 2 11 8 13 15"/>
  </g>
  <g fill="none" stroke="#2563eb" stroke-width="4" stroke-linecap="round" stroke-linejoin="round" opacity="0.10">
    <path d="M42 202c30 12 58 8 82-12"/>
    <path d="M125 190c-8 18-31 28-58 24"/>
    <path d="M183 192c12 0 22 9 22 21"/>
    <path d="M183 192c-12 0-22 9-22 21"/>
  </g>
</svg>
